<svg xmlns="http://www.w3.org/2000/svg" width="980" height="620"><rect width="980" height="620" fill="white"/><text x="490" y="35" text-anchor="middle" font-family="Arial" font-weight="bold" font-size="24">Core Data Model</text><g font-family="Arial" font-size="15" text-anchor="middle"><rect x="60" y="90" width="150" height="60" rx="10" fill="#e8f1fb" stroke="#4472c4"/><text x="135" y="126">customers</text><rect x="60" y="220" width="150" height="60" rx="10" fill="#e8f1fb" stroke="#4472c4"/><text x="135" y="256">contacts</text><rect x="300" y="90" width="170" height="60" rx="10" fill="#e2f0d9" stroke="#70ad47"/><text x="385" y="126">contracts</text><rect x="300" y="220" width="170" height="60" rx="10" fill="#e2f0d9" stroke="#70ad47"/><text x="385" y="256">contract_services</text><rect x="300" y="350" width="170" height="60" rx="10" fill="#fde9d9" stroke="#c65911"/><text x="385" y="386">contract_alerts</text><rect x="560" y="90" width="160" height="60" rx="10" fill="#fff2cc" stroke="#c9a227"/><text x="640" y="126">services</text><rect x="560" y="220" width="160" height="60" rx="10" fill="#efe9fb" stroke="#8064a2"/><text x="640" y="256">tickets</text><rect x="560" y="350" width="160" height="60" rx="10" fill="#efe9fb" stroke="#8064a2"/><text x="640" y="386">ticket_history</text><rect x="560" y="480" width="160" height="60" rx="10" fill="#efe9fb" stroke="#8064a2"/><text x="640" y="516">ticket_comments</text><rect x="790" y="220" width="130" height="60" rx="10" fill="#d9eaf7" stroke="#4472c4"/><text x="855" y="256">sla_definitions</text><rect x="790" y="350" width="130" height="60" rx="10" fill="#d9eaf7" stroke="#4472c4"/><text x="855" y="386">users</text></g><g stroke="#555" stroke-width="2" fill="none" marker-end="url(#a)"><defs><marker id="a" markerWidth="10" markerHeight="10" refX="8" refY="3" orient="auto"><path d="M0,0 L0,6 L9,3 z" fill="#555"/></marker></defs><path d="M135 150 L135 220"/><path d="M210 120 L300 120"/><path d="M470 120 L560 120"/><path d="M385 150 L385 220"/><path d="M470 250 L560 250"/><path d="M385 280 L385 350"/><path d="M470 380 L560 250"/><path d="M640 150 L640 220"/><path d="M640 280 L640 350"/><path d="M640 410 L640 480"/><path d="M720 250 L790 250"/><path d="M855 280 L855 350"/></g></svg>